# xmcd
#
# Track frame offsets: 
#        182
#        21522
#        42287
#        62590
#        82850
#        101255
#        121267
#        140740
#        163052
#        182987
#        205997
#        229815
#        247957
#        268730
#        291415
#        307865
#
# Disc length: 4252 seconds
#
# Revision: 3
# Processed by: cddbd v1.5.2PL0 Copyright (c) Steve Scherf et al.
# Submitted via: ExactAudioCopyFreeDBPlugin 1.0
#
DISCID=e2109a10
DTITLE=Somethin' For The People - Somethin' For The People
DYEAR=1995
DGENRE=R&B
TTITLE0=You Want This Party Started
TTITLE1=With You
TTITLE2=Don't Wanna Break Your Heart
TTITLE3=Can You Feel Me
TTITLE4=Damned If I Do (feat. Adina Howard)
TTITLE5=Make It Happen
TTITLE6=Take it Easy
TTITLE7=You Don't Have To Be Alone (feat. Roger Troutman)
TTITLE8=Waiting
TTITLE9=There I Go
TTITLE10=She's The Kinda Girl
TTITLE11=Still The Man
TTITLE12=Hood Thang
TTITLE13=And It Don't Stop
TTITLE14=On My Mind
TTITLE15=You Know What Would Be A Trip
EXTD=YEAR: 1995
EXTT0=
EXTT1=
EXTT2=
EXTT3=
EXTT4=
EXTT5=
EXTT6=
EXTT7=
EXTT8=
EXTT9=
EXTT10=
EXTT11=
EXTT12=
EXTT13=
EXTT14=
EXTT15=
PLAYORDER=
